<svg width="750" height="615" viewBox="0 0 750 615" fill="none" xmlns="http://www.w3.org/2000/svg">
<g id="No Internet">
<g id="circle">
<path id="Stroke 1" d="M26.2731 282.548V288.881" stroke="#D2D8DF" stroke-width="2.921" stroke-linecap="round"/>
<g id="Group 8">
<path id="Stroke 2" d="M12.0527 285.979L17.2278 291.306" stroke="#D2D8DF" stroke-width="2.921" stroke-linecap="round"/>
<path id="Stroke 4" d="M5.99963 300.161H13.3171" stroke="#D2D8DF" stroke-width="2.921" stroke-linecap="round"/>
<path id="Stroke 6" d="M11.4602 314.596L16.6353 309.268" stroke="#D2D8DF" stroke-width="2.921" stroke-linecap="round"/>
</g>
<path id="Stroke 9" d="M26.2734 316.323V309.99" stroke="#D2D8DF" stroke-width="2.921" stroke-linecap="round"/>
<path id="Stroke 10" d="M36.8273 312.102L32.6052 307.88" stroke="#D2D8DF" stroke-width="2.921" stroke-linecap="round"/>
<path id="Stroke 11" d="M45.2712 301.545H38.9381" stroke="#D2D8DF" stroke-width="2.921" stroke-linecap="round"/>
<path id="Stroke 12" d="M41.0512 286.768L36.8291 290.991" stroke="#D2D8DF" stroke-width="2.921" stroke-linecap="round"/>
<path id="Stroke 13" d="M366.146 5.99963V10.2217" stroke="#D2D8DF" stroke-width="2.921" stroke-linecap="round"/>
<path id="Stroke 15" d="M353.487 18.6671H357.709" stroke="#D2D8DF" stroke-width="2.921" stroke-linecap="round"/>
<path id="Stroke 16" d="M366.149 31.3336V27.1115" stroke="#D2D8DF" stroke-width="2.921" stroke-linecap="round"/>
<path id="Stroke 17" d="M376.707 18.6667H372.485" stroke="#D2D8DF" stroke-width="2.921" stroke-linecap="round"/>
<path id="Stroke 18" d="M121.273 183.328V189.661" stroke="#D2D8DF" stroke-width="2.921" stroke-linecap="round"/>
<path id="Stroke 19" d="M102.276 202.327H108.609" stroke="#D2D8DF" stroke-width="2.921" stroke-linecap="round"/>
<path id="Stroke 20" d="M121.27 219.216V212.882" stroke="#D2D8DF" stroke-width="2.921" stroke-linecap="round"/>
<path id="Stroke 21" d="M138.163 202.328H131.83" stroke="#D2D8DF" stroke-width="2.921" stroke-linecap="round"/>
<g id="Group 42">
<path id="Stroke 22" d="M575.68 413.516C580.725 413.516 584.817 417.608 584.817 422.655C584.817 427.703 580.725 431.794 575.68 431.794C570.635 431.794 566.544 427.703 566.544 422.655" stroke="#D2D8DF" stroke-width="2.921" stroke-linecap="round"/>
<path id="Stroke 24" d="M617.383 533.652C618.512 541.533 613.042 548.836 605.165 549.965C597.287 551.093 589.986 545.622 588.857 537.743C587.728 529.864 593.197 522.561 601.074 521.432" stroke="#D2D8DF" stroke-width="2.921" stroke-linecap="round"/>
<path id="Fill 26" fill-rule="evenodd" clip-rule="evenodd" d="M617.492 330.602C622.917 328.91 631.233 322.275 633.158 315.137C634.903 321.447 642.221 328.91 648.823 329.475C641.391 332.106 634.285 339.924 633.158 346.066C632.391 339.806 622.563 331.515 617.492 330.602" fill="#EBECEE"/>
<path id="Fill 28" fill-rule="evenodd" clip-rule="evenodd" d="M60.6262 410.7C63.3396 409.854 67.4957 406.537 68.4581 402.968C69.3308 406.121 72.9887 409.854 76.2899 410.137C72.5747 411.451 69.0226 415.361 68.4581 418.431C68.0745 415.302 63.1604 411.155 60.6262 410.7" fill="#EBECEE"/>
<path id="Fill 30" fill-rule="evenodd" clip-rule="evenodd" d="M110.976 117.036C110.976 120.951 107.804 124.123 103.892 124.123C99.9775 124.123 96.8071 120.951 96.8071 117.036C96.8071 113.123 99.9775 109.95 103.892 109.95C107.804 109.95 110.976 113.123 110.976 117.036" fill="#D1D8DF"/>
<path id="Fill 32" fill-rule="evenodd" clip-rule="evenodd" d="M529.344 561.96C529.344 568.502 524.041 573.804 517.503 573.804C510.961 573.804 505.66 568.502 505.66 561.96C505.66 555.419 510.961 550.116 517.503 550.116C524.041 550.116 529.344 555.419 529.344 561.96" fill="#EBECEE"/>
<path id="Fill 34" fill-rule="evenodd" clip-rule="evenodd" d="M748.067 103.975C748.067 109.165 743.862 113.371 738.676 113.371C733.487 113.371 729.283 109.165 729.283 103.975C729.283 98.7858 733.487 94.5802 738.676 94.5802C743.862 94.5802 748.067 98.7858 748.067 103.975" fill="#EBECEE"/>
<path id="Stroke 36" fill-rule="evenodd" clip-rule="evenodd" d="M243.378 542.769C243.378 546.041 240.728 548.692 237.457 548.692C234.188 548.692 231.537 546.041 231.537 542.769C231.537 539.498 234.188 536.846 237.457 536.846C240.728 536.846 243.378 539.498 243.378 542.769Z" stroke="#D2D8DF" stroke-width="2.921" stroke-linecap="round"/>
<path id="Stroke 38" fill-rule="evenodd" clip-rule="evenodd" d="M239.862 71.5111C239.862 75.4262 236.69 78.5974 232.777 78.5974C228.865 78.5974 225.693 75.4262 225.693 71.5111C225.693 67.5977 228.865 64.4247 232.777 64.4247C236.69 64.4247 239.862 67.5977 239.862 71.5111Z" stroke="#D2D8DF" stroke-width="2.921" stroke-linecap="round"/>
<path id="Stroke 40" fill-rule="evenodd" clip-rule="evenodd" d="M420.57 608.357C416.043 610.08 410.977 607.805 409.255 603.279C407.532 598.751 409.805 593.681 414.334 591.96C418.859 590.237 423.925 592.51 425.648 597.039C427.372 601.567 425.098 606.635 420.57 608.357Z" stroke="#D2D8DF" stroke-width="2.921" stroke-linecap="round"/>
</g>
</g>
<path id="Fill 1" fill-rule="evenodd" clip-rule="evenodd" d="M296.482 461.889H336.971L315.762 529.372L410.241 433.932H353.359L385.175 294.142L296.482 461.889Z" fill="url(#paint0_linear_74_19626)"/>
<g id="Group 6">
<path id="Fill 2" fill-rule="evenodd" clip-rule="evenodd" d="M538.692 251.724C528.709 244.63 517.053 239.741 504.423 237.791C497.514 177.43 446.273 130.552 384.062 130.552C345.295 130.552 310.788 148.766 288.606 177.103C280.822 174.496 272.513 173.073 263.849 173.073C224.073 173.073 191.272 202.889 186.537 241.388C153.62 251.593 129.719 282.281 129.719 318.544C129.719 363.024 165.669 399.095 210.107 399.304C212.395 399.612 214.721 399.792 217.094 399.792H481.221C486.097 400.706 491.1 401.204 496.241 401.204C540.855 401.204 577.009 365.044 577.009 320.436C577.009 291.4 561.685 265.956 538.692 251.724" fill="#F1F2F7"/>
<path id="Fill 4" fill-rule="evenodd" clip-rule="evenodd" d="M314.156 205.974C304.809 202.181 294.407 200.052 283.443 200.052C242.839 200.052 209.934 229.035 209.934 264.781C209.934 268.397 210.279 271.937 210.929 275.385C242.499 230.788 264.253 213.077 314.156 205.974" fill="#E0E2EE"/>
</g>
</g>
<defs>
<linearGradient id="paint0_linear_74_19626" x1="353.362" y1="176.526" x2="168.968" y2="265.701" gradientUnits="userSpaceOnUse">
<stop stop-color="#FF8960"/>
<stop offset="1" stop-color="#FF62A5"/>
</linearGradient>
</defs>
</svg>
